<svg xmlns="http://www.w3.org/2000/svg" viewBox="0 0 512 512" width="300" height="300">
	<style>
		tspan { white-space:pre }
		.shp0 { fill: #239999 } 
		.shp1 { fill: #45b8c4 } 
		.shp2 { fill: #ffffff } 
		.shp3 { fill: #fcc63d } 
		.shp4 { fill: #424c59 } 
		.shp5 { fill: #d8401d } 
		.shp6 { fill: #f9572b } 
	</style>
	<path id="Layer" class="shp0" d="M185.46 371.37L326.53 371.37L326.53 451.24L185.46 451.24L185.46 371.37Z" />
	<path id="Layer" class="shp1" d="M443.13 35.29L458.79 35.29C488.18 35.29 512 59.11 512 88.49L512 334.78C512 364.16 488.18 387.98 458.79 387.98L53.2 387.98C23.81 387.98 0 364.16 0 334.78L0 88.49C0 59.11 23.81 35.29 53.2 35.29L65.91 35.29" />
	<path id="Layer" class="shp2" d="M65.91 75.42L53.2 75.42C45.99 75.42 40.13 81.29 40.13 88.5L40.13 334.77C40.13 341.98 45.99 347.85 53.2 347.85L94.85 347.85L414.18 347.85L458.79 347.85C466 347.85 471.87 341.98 471.87 334.77L471.87 88.5C471.87 81.29 466 75.42 458.79 75.42L443.13 75.42L65.91 75.42Z" />
	<path id="Layer" class="shp1" d="M372.51 476.71L139.49 476.71L139.49 476.71C139.49 453.88 158 435.36 180.84 435.36L331.16 435.36C354 435.36 372.51 453.88 372.51 476.71L372.51 476.71Z" />
	<path id="Layer" class="shp3" d="M471.87 268.46L471.87 334.76C471.87 339.84 468.96 344.24 464.73 346.42L354.41 236.1C331.56 243.62 305.41 238.29 287.25 220.13C273.94 206.83 267.53 189.26 267.99 171.84L303.68 189.67C307.81 191.74 312.2 192.71 316.51 192.71C327.08 192.71 337.25 186.88 342.28 176.79C349.38 162.58 343.61 145.29 329.4 138.19L294.51 120.77C320.29 101.57 356.92 103.66 380.32 127.05C398.21 144.96 403.65 170.6 396.61 193.2L471.87 268.46Z" />
	<g id="Layer">
		<path id="Layer" class="shp4" d="M96.72 130.32L70.23 156.81L105.44 218.5L143.58 222.76L162.67 203.66L158.41 165.53L96.72 130.32Z" />
		<path id="Layer" class="shp4" d="M240.99 281.99L222.52 300.46L144.2 222.14L162.67 203.67L240.99 281.99Z" />
	</g>
	<path id="Layer" class="shp5" d="M338.71 347.85L238.04 347.85L224.7 334.5C214.7 324.5 214.7 308.28 224.7 298.28L238.81 284.16C239.43 283.55 240.06 282.98 240.72 282.44C250.78 274.19 265.65 274.77 275.04 284.17L338.71 347.85Z" />
	<path id="Layer" class="shp6" d="M338.71 347.85L273.5 347.85L242.43 316.77C233.05 307.39 232.47 292.51 240.72 282.44C250.78 274.19 265.65 274.77 275.04 284.17L338.71 347.85Z" />
	<g id="Layer">
	</g>
	<g id="Layer">
	</g>
	<g id="Layer">
	</g>
	<g id="Layer">
	</g>
	<g id="Layer">
	</g>
	<g id="Layer">
	</g>
	<g id="Layer">
	</g>
	<g id="Layer">
	</g>
	<g id="Layer">
	</g>
	<g id="Layer">
	</g>
	<g id="Layer">
	</g>
	<g id="Layer">
	</g>
	<g id="Layer">
	</g>
	<g id="Layer">
	</g>
	<g id="Layer">
	</g>
</svg>